<?xml version="1.0" encoding="UTF-8"?>
<svg version="1.1" xmlns="http://www.w3.org/2000/svg" width="1080" height="1080">
<path d="M0 0 C19.35298606 -2.07353422 40.79887381 13.55526478 55.24609375 24.9296875 C78.22030506 43.50960165 96.17368304 66.9045161 99.625 97 C100.20055686 103.67029295 100.12124883 110.12010172 99.4921875 116.78515625 C99.40050293 117.76492432 99.30881836 118.74469238 99.21435547 119.75415039 C99.10824951 120.86584595 99.10824951 120.86584595 99 122 C109.86963595 114.18167347 120.49504177 106.24359276 130.49804688 97.33447266 C131.91024331 96.07974806 133.33746716 94.84199524 134.765625 93.60546875 C146.41641011 83.40209712 159.88717623 69.84710285 163 54 C163.24363281 52.7625 163.24363281 52.7625 163.4921875 51.5 C164.80368787 42.2927321 162.41743128 33.67136216 159.8125 24.875 C159 22 159 22 159 18 C165.92042554 18.75940953 169.736709 23.90947985 174 29 C187.16230489 45.80087362 196.23467687 65.5687313 202 86 C202.35964844 87.21042969 202.71929688 88.42085938 203.08984375 89.66796875 C207.45745674 107.15854797 207.09762671 128.00236738 201 145 C200.62617187 146.06863281 200.25234375 147.13726562 199.8671875 148.23828125 C197.11976866 155.39794559 193.31593953 161.68156404 189 168 C214.15706189 165.47836054 243.73586079 156.27518131 260.80859375 136.953125 C267.5531108 128.00528691 269.0714405 115.78470775 271 105 C272.87109375 105.26953125 272.87109375 105.26953125 275 106 C282.20777629 115.78024863 283.13408657 132.48552653 283.203125 144.1796875 C283.20882507 144.95071808 283.21452515 145.72174866 283.22039795 146.5161438 C283.22979958 148.1448634 283.23636256 149.77360161 283.24023438 151.40234375 C283.24983687 153.83369547 283.28086242 156.26416225 283.3125 158.6953125 C283.4121937 173.17575346 281.56606641 186.93906227 276.8125 200.6875 C276.50989258 201.57050781 276.20728516 202.45351563 275.89550781 203.36328125 C267.66042148 226.49232619 251.29348633 244.25676585 229.33203125 255.03515625 C187.73218871 274.42998871 133.46997502 274.24639038 88.33422852 276.30371094 C47.45025889 277.33400974 47.45025889 277.33400974 13.5 297.625 C8.87833687 302.85188092 8.73432633 307.11293013 8.76171875 313.90625 C9.0974188 318.26484739 10.20359116 322.28768571 11.44140625 326.46875 C12 329 12 329 11 332 C-6.33756388 310.85342587 -18.76268702 284.59219419 -25 258 C-25.19319824 257.21560547 -25.38639648 256.43121094 -25.58544922 255.62304688 C-31.12258781 232.35350444 -32.03901886 204.26798441 -26 181 C-25.79600586 180.17580566 -25.59201172 179.35161133 -25.38183594 178.50244141 C-22.35258928 166.44498144 -18.37893917 155.19139775 -13 144 C-12.56381348 143.08766602 -12.12762695 142.17533203 -11.67822266 141.23535156 C-9.66649532 137.03180329 -7.64824644 132.8314252 -5.62573242 128.63305664 C18.71646857 81.02182265 18.71646857 81.02182265 20.5 29.1875 C17.03909289 19.37552476 10.84907475 12.15801305 2.78515625 5.75390625 C0.82517975 3.82824006 0.37156725 2.68354125 0 0 Z " fill="#034708" transform="translate(449,328)"/>
<path d="M0 0 C1.87109375 0.26953125 1.87109375 0.26953125 4 1 C11.20777629 10.78024863 12.13408657 27.48552653 12.203125 39.1796875 C12.20882507 39.95071808 12.21452515 40.72174866 12.22039795 41.5161438 C12.22979958 43.1448634 12.23636256 44.77360161 12.24023438 46.40234375 C12.24983687 48.83369547 12.28086242 51.26416225 12.3125 53.6953125 C12.4121937 68.17575346 10.56606641 81.93906227 5.8125 95.6875 C5.50989258 96.57050781 5.20728516 97.45351563 4.89550781 98.36328125 C-3.33957852 121.49232619 -19.70651367 139.25676585 -41.66796875 150.03515625 C-83.26781129 169.42998871 -137.53002498 169.24639038 -182.66577148 171.30371094 C-221.98927115 172.07288449 -221.98927115 172.07288449 -255.33203125 190.3828125 C-257.27285502 192.55136866 -259.16086894 194.74493467 -261 197 C-262.06388125 193.79220965 -261.96185678 192.0683832 -260.734375 188.9375 C-260.27333374 187.75716187 -260.27333374 187.75716187 -259.80297852 186.55297852 C-259.45549561 185.71049561 -259.1080127 184.8680127 -258.75 184 C-258.39156006 183.12077881 -258.03312012 182.24155762 -257.66381836 181.33569336 C-238.20847235 134.96691256 -202.87120964 99.250423 -156.6875 79.8125 C-143.41494358 74.58513853 -129.90488688 71.77279125 -115.77514648 70.09082031 C-99.96081176 68.20498566 -84.35566319 65.23151352 -69 61 C-68.08959961 60.75378906 -67.17919922 60.50757813 -66.24121094 60.25390625 C-33.33869731 51.60888441 -33.33869731 51.60888441 -8.50390625 29.69140625 C-5.13073186 23.43551903 -3.44955665 16.92163299 -2 10 C-1.690625 8.52273438 -1.690625 8.52273438 -1.375 7.015625 C-0.89992885 4.67985851 -0.44051273 2.34249123 0 0 Z " fill="#89D10B" transform="translate(720,433)"/>
<path d="M0 0 C6.92042554 0.75940953 10.736709 5.90947985 15 11 C28.16230489 27.80087362 37.23467687 47.5687313 43 68 C43.35964844 69.21042969 43.71929688 70.42085938 44.08984375 71.66796875 C48.45829562 89.16190733 48.093357 109.99853507 42 127 C41.63777344 128.04542969 41.27554688 129.09085938 40.90234375 130.16796875 C33.33947723 149.98524271 33.33947723 149.98524271 25.5 153.625 C24.00201571 153.77220077 22.50141019 153.89326468 21 154 C18.64335067 154.46680329 16.28949853 154.94780184 13.9375 155.4375 C9.21644734 156.3508906 4.50656794 157.0843817 -0.2734375 157.61328125 C-39.15332124 161.92155593 -72.6235358 177.20517479 -101 204 C-101.78632813 204.721875 -102.57265625 205.44375 -103.3828125 206.1875 C-124.3885099 226.18006087 -146.88387024 259.50368085 -150.578125 288.92578125 C-151 291 -151 291 -153 293 C-154.11074586 288.51249771 -154.17734153 284.09510482 -154.203125 279.5 C-154.21357849 278.26341393 -154.21357849 278.26341393 -154.22424316 277.00184631 C-154.24165533 274.33451252 -154.24796968 271.66738837 -154.25 269 C-154.25100708 268.09361786 -154.25201416 267.18723572 -154.25305176 266.25338745 C-154.24301192 252.94070929 -153.78340277 240.06149623 -151 227 C-150.85546387 226.26958496 -150.71092773 225.53916992 -150.56201172 224.78662109 C-141.02130648 176.91404586 -112.57273403 140.20269597 -72.75 113.3125 C-71.83943848 112.70688232 -70.92887695 112.10126465 -69.99072266 111.47729492 C-64.51566563 107.81584433 -59.31793741 103.95130588 -54.21044922 99.79223633 C-51.59579909 97.67227315 -48.90521179 95.67306103 -46.1875 93.6875 C-39.5455702 88.73376289 -33.2530728 83.42966431 -27 78 C-26.10023438 77.22527344 -25.20046875 76.45054687 -24.2734375 75.65234375 C-12.61839101 65.4226048 0.88224905 51.87218667 4 36 C4.24363281 34.7625 4.24363281 34.7625 4.4921875 33.5 C5.80368787 24.2927321 3.41743128 15.67136216 0.8125 6.875 C0 4 0 4 0 0 Z " fill="#229508" transform="translate(608,346)"/>
<path d="M0 0 C0.33 1.32 0.66 2.64 1 4 C1.99 4 2.98 4 4 4 C3.34 6.31 2.68 8.62 2 11 C1.67 11 1.34 11 1 11 C0.67 7.37 0.34 3.74 0 0 Z " fill="#187C08" transform="translate(454,628)"/>
</svg>
